<svg width="214" height="141" viewBox="0 0 214 141" fill="none" xmlns="http://www.w3.org/2000/svg">
<path d="M84.15 8.35066C81.6546 0.417909 73.7252 -0.15506 66.9677 1.9707C29.0667 13.8934 -9.26482 79.8726 2.9814 118.802C7.87989 134.374 19.9421 143.979 36.689 138.71C46.9722 135.476 69.6632 115.745 65.8276 103.552C65.4579 102.377 64.9875 101.395 63.5185 101.857C60.4336 102.828 59.2775 127.892 35.6261 135.332C20.4951 140.092 9.88544 130.998 5.49528 117.042C-6.1964 79.876 30.0455 16.4915 66.6243 4.98465C72.2066 3.22859 78.969 3.68433 81.0485 10.295C86.4554 27.4826 60.4449 50.5174 61.7388 54.6306C61.9237 55.2182 62.9437 55.3817 63.3844 55.243C73.3738 52.1006 87.2462 18.1931 84.15 8.35066ZM124.305 74.1787C121.9 75.2581 112.311 100.715 97.9149 105.243C96.8865 105.567 95.472 105.689 95.0561 104.367C92.1909 95.259 102.181 77.7483 106.07 69.583C106.078 69.096 105.986 68.8022 105.847 68.3615C105.616 67.627 104.89 67.3711 104.155 67.6022C102.098 68.2492 101.823 73.0177 99.8585 73.9585C98.5743 75.0082 98.0626 76.4607 97.3577 77.8125C94.0996 74.64 87.56 75.4057 83.5936 76.6534C75.9546 79.0565 70.8374 93.5814 73.1018 100.78C73.8412 103.13 75.462 105.203 78.2532 104.325C84.57 102.338 92.1102 91.4098 95.3702 85.864C93.8813 90.3684 91.5041 101.287 92.9367 105.841C93.7223 108.338 95.8169 108.325 98.0204 107.632C106.247 105.044 125.462 83.5012 125.703 75.0304L124.305 74.1787ZM78.1014 101.79C76.6324 102.252 75.822 101.215 75.4061 99.8933C73.8349 94.8987 77.521 81.4696 82.9564 79.7598C85.3068 79.0204 93.8024 77.8009 94.819 81.0327L95.0501 81.7672L93.7873 84.4246L93.7411 84.2777C91.2239 89.1056 83.3899 100.126 78.1014 101.79ZM93.8418 84.0846L93.7956 83.9377L93.7411 84.2777L93.8418 84.0846ZM151.015 65.7764C146.538 74.1265 137.062 81.4664 129.613 87.0385C128.765 85.3681 128.063 83.6515 127.509 81.8887C125.799 76.4533 124.923 64.9437 131.827 62.7718L133.179 63.4766C133.222 66.6919 129.785 71.1633 130.663 73.9544C130.848 74.542 131.923 74.3654 132.216 74.273C135.008 73.395 136.625 64.1683 135.84 61.6709C135.239 59.7612 133.547 59.0019 131.637 59.6027C119.738 63.3458 124.163 81.0039 127.439 88.8525C122.705 92.2789 115.073 102.913 116.967 108.936C117.845 111.728 120.495 113.477 123.286 112.599C131.659 109.965 131.79 96.5245 130.399 89.5359C134.162 83.0244 150.153 76.3797 152.413 66.6281L151.015 65.7764ZM123.079 110.404C121.317 110.958 119.486 109.758 118.932 107.996C116.991 101.826 124.217 95.0321 128.225 91.3498C129.695 96.5376 129.249 108.463 123.079 110.404ZM186.865 55.7903C186.68 55.2026 186.055 54.7537 185.467 54.9385C183.117 55.6779 167.551 83.1761 154.477 87.289C152.273 87.9822 149.784 88.2809 148.952 85.6366C148.028 82.6986 150.552 71.7339 152.302 69.0847C153.817 68.7695 155.471 68.895 156.94 68.4329C162.082 66.8154 170.089 59.9377 168.148 53.7678C167.547 51.858 165.259 51.7705 163.643 52.2788C154.095 55.2826 144.068 77.8095 146.98 87.0643C148.181 90.8838 152.425 90.5175 155.51 89.547C161.092 87.791 188.436 60.785 186.865 55.7903ZM163.741 55.1541C164.034 55.0617 165.302 54.9858 165.441 55.4265C166.735 59.5398 160.523 63.9153 157.145 64.9782C156.263 65.2555 155.189 65.4321 154.215 65.4155C155.356 61.3436 159.774 56.4019 163.741 55.1541ZM211.986 46.5965C207.509 54.9467 198.033 62.2865 190.584 67.8587C189.735 66.1883 189.034 64.4716 188.479 62.7088C186.769 57.2734 185.893 45.7639 192.798 43.5919L194.149 44.2968C194.192 47.5121 190.756 51.9834 191.634 54.7746C191.818 55.3622 192.893 55.1856 193.187 55.0932C195.978 54.2151 197.596 44.9884 196.81 42.4911C196.209 40.5814 194.518 39.822 192.608 40.4228C180.709 44.166 185.133 61.824 188.41 69.6726C183.676 73.0991 176.043 83.7335 177.938 89.7566C178.816 92.5477 181.465 94.2974 184.256 93.4194C192.63 90.7853 192.76 77.3446 191.369 70.356C195.133 63.8446 211.124 57.1998 213.384 47.4482L211.986 46.5965ZM184.05 91.2241C182.287 91.7786 180.457 90.5786 179.902 88.8158C177.961 82.6459 185.188 75.8523 189.195 72.1699C190.666 77.3578 190.22 89.2832 184.05 91.2241Z" fill="#EDEDED"/>
</svg>
