<svg width="38" height="45" viewBox="0 0 38 45" fill="none" xmlns="http://www.w3.org/2000/svg">
<path d="M18.9998 4.15674C15.2298 4.15674 11.698 5.60562 9.05393 8.23776L9.01431 8.2774C8.75484 8.53721 8.75969 8.95355 9.02518 9.20746C9.29067 9.46129 9.71635 9.45654 9.97591 9.19683L10.0142 9.15851C12.4022 6.78124 15.5934 5.47211 18.9998 5.47211C25.946 5.47211 31.5972 11.0003 31.5972 17.7956C31.5972 24.5909 25.946 30.1191 18.9998 30.1191C12.0536 30.1191 6.40246 24.5908 6.40246 17.7956C6.40246 15.5757 7.01232 13.3998 8.1661 11.5031C8.35594 11.1909 8.25127 10.7873 7.93214 10.6016C7.61293 10.4159 7.20045 10.5183 7.01062 10.8304C5.73313 12.9305 5.05786 15.3391 5.05786 17.7957C5.05786 25.3161 11.3122 31.4346 18.9997 31.4346C26.6873 31.4346 32.9416 25.3161 32.9416 17.7957C32.9416 10.2752 26.6874 4.15674 18.9998 4.15674Z" fill="black"/>
<path d="M36.0281 15.0585C35.6634 14.5272 35.3189 14.0253 35.1895 13.5517C35.0514 13.0462 35.0926 12.4235 35.1364 11.7642C35.2016 10.7808 35.2691 9.76386 34.7555 8.89567C34.2341 8.01396 33.292 7.56141 32.381 7.12371C31.782 6.83596 31.2162 6.56411 30.8485 6.20438C30.4807 5.84455 30.2029 5.2911 29.9086 4.70505C29.4613 3.81393 28.9987 2.89239 28.0973 2.38228C27.2098 1.87998 26.1703 1.94599 25.165 2.00971C24.491 2.05251 23.8546 2.09294 23.3377 1.95776C22.8536 1.83111 22.3405 1.49414 21.7974 1.1373C20.9862 0.604248 20.0665 0 18.9997 0C17.9329 0 17.0132 0.604248 16.2017 1.13739C15.6586 1.49423 15.1457 1.8312 14.6615 1.95776C14.1448 2.09294 13.5083 2.05251 12.8344 2.00971C11.829 1.94599 10.7896 1.87998 9.90204 2.38228C9.00072 2.89239 8.53812 3.81393 8.0907 4.70505C7.79655 5.2911 7.51866 5.84464 7.15084 6.20438C6.78311 6.56411 6.21737 6.83596 5.61829 7.12371C4.70727 7.56132 3.76535 8.01396 3.24381 8.89567C2.73026 9.76386 2.79773 10.7808 2.86296 11.7643C2.90671 12.4235 2.94795 13.0462 2.80986 13.5517C2.6804 14.0253 2.33594 14.5272 1.97117 15.0585C1.42627 15.8523 0.808594 16.752 0.808594 17.7956C0.808594 18.8392 1.42618 19.7389 1.97117 20.5327C2.33585 21.064 2.6804 21.5659 2.80977 22.0395C2.94786 22.545 2.90662 23.1677 2.86287 23.827C2.79764 24.8104 2.73017 25.8273 3.24372 26.6955C3.76517 27.5773 4.70718 28.0299 5.6182 28.4675C6.21719 28.7553 6.78302 29.0271 7.15075 29.3868C7.49171 29.7204 7.75549 30.221 8.02655 30.7591L3.14345 39.5473C2.93394 39.9243 2.93996 40.3712 3.15962 40.7427C3.37929 41.1142 3.77218 41.3421 4.21071 41.3525L7.95548 41.4411L10.0682 44.4671C10.3033 44.8039 10.6846 45 11.0979 45C11.1194 45 11.1412 44.9995 11.1629 44.9984C11.601 44.9767 11.9876 44.7386 12.1971 44.3616L17.3245 35.1338C17.8405 35.398 18.3965 35.5912 18.9996 35.5912C19.6026 35.5912 20.1587 35.398 20.6748 35.1338L25.8021 44.3616C26.0116 44.7387 26.3982 44.9768 26.8363 44.9985C26.8582 44.9996 26.8798 45.0001 26.9014 45.0001C27.3147 45.0001 27.6959 44.804 27.9311 44.4672L30.0437 41.4412L33.7884 41.3525C34.227 41.3422 34.6199 41.1142 34.8395 40.7428C35.0592 40.3712 35.0652 39.9244 34.8557 39.5474L33.07 36.3336C32.8927 36.0144 32.4845 35.8962 32.1583 36.0699C31.8321 36.2434 31.7114 36.6427 31.8887 36.9618L33.5998 40.0412L29.9622 40.1273C29.5613 40.1368 29.187 40.3359 28.9609 40.6598L26.9087 43.5991L21.8193 34.4395C22.3543 34.088 22.8601 33.7583 23.3377 33.6334C23.8544 33.4983 24.491 33.5386 25.1649 33.5814C26.1703 33.6452 27.2097 33.7112 28.0972 33.2089C28.567 32.943 28.917 32.5649 29.2084 32.138L30.4095 34.2998C30.5868 34.6189 30.9947 34.7369 31.3212 34.5635C31.6475 34.39 31.7681 33.9907 31.5909 33.6716L29.9725 30.759C30.2436 30.2209 30.5073 29.7204 30.8483 29.3868C31.216 29.0271 31.7818 28.7553 32.3808 28.4675C33.2919 28.0299 34.2338 27.5773 34.7553 26.6955C35.2689 25.8274 35.2014 24.8104 35.1362 23.8269C35.0924 23.1677 35.0512 22.545 35.1893 22.0395C35.3187 21.5658 35.6632 21.064 36.0279 20.5327C36.5728 19.7389 37.1905 18.8392 37.1905 17.7956C37.1907 16.752 36.573 15.8522 36.0281 15.0585ZM11.0905 43.5991L9.03837 40.6599C8.81223 40.336 8.43794 40.1369 8.03706 40.1274L4.39956 40.0413L8.79085 32.1382C9.08221 32.565 9.43224 32.9431 9.90204 33.2089C10.7896 33.7112 11.8293 33.6453 12.8344 33.5815C13.5083 33.5387 14.1448 33.4984 14.6615 33.6335C15.1392 33.7584 15.645 34.0882 16.18 34.4396L11.0905 43.5991ZM34.9118 19.7994C34.5018 20.3968 34.0777 21.0145 33.8905 21.6998C33.6953 22.4142 33.7458 23.1757 33.7946 23.9121C33.8493 24.7359 33.9008 25.5141 33.5917 26.0368C33.2747 26.5727 32.5527 26.9196 31.7883 27.2869C31.1172 27.6093 30.4232 27.9426 29.8977 28.4568C29.3722 28.9709 29.0314 29.6498 28.7017 30.3064C28.3264 31.0541 27.9718 31.7603 27.4241 32.0704C26.8897 32.3728 26.0944 32.3223 25.2521 32.269C24.4993 32.2211 23.721 32.1718 22.9907 32.3627C22.2902 32.546 21.6588 32.9607 21.0481 33.362C20.3327 33.832 19.657 34.2759 18.9997 34.2759C18.3425 34.2759 17.6668 33.832 16.9514 33.362C16.3407 32.9608 15.7094 32.546 15.0087 32.3627C14.6078 32.2579 14.1925 32.2255 13.7748 32.2255C13.4316 32.2255 13.0868 32.2474 12.7473 32.269C11.905 32.3224 11.1096 32.373 10.5753 32.0705C10.0275 31.7604 9.67294 31.0541 9.29757 30.3064C8.96802 29.6498 8.62716 28.9709 8.10157 28.4568C7.57607 27.9427 6.88212 27.6093 6.21099 27.2869C5.4466 26.9197 4.72461 26.5728 4.40764 26.0368C4.09849 25.5141 4.15006 24.7359 4.20469 23.9121C4.25356 23.1758 4.30405 22.4143 4.10882 21.6999C3.92159 21.0146 3.49753 20.3968 3.08739 19.7995C2.607 19.0996 2.15319 18.4386 2.15319 17.7957C2.15319 17.1527 2.607 16.4917 3.08739 15.7918C3.49753 15.1944 3.9215 14.5767 4.10882 13.8914C4.30405 13.177 4.25356 12.4155 4.20469 11.6792C4.15006 10.8553 4.09849 10.0771 4.40764 9.55441C4.72461 9.01855 5.4466 8.67164 6.21099 8.30435C6.88212 7.98196 7.57607 7.64851 8.10157 7.13443C8.62707 6.62036 8.96793 5.94141 9.29757 5.28486C9.67294 4.53718 10.0275 3.83089 10.5753 3.52081C11.1096 3.21847 11.905 3.26892 12.7473 3.32227C13.5 3.37008 14.2783 3.41947 15.0087 3.22849C15.7092 3.04523 16.3406 2.63048 16.9513 2.22926C17.6667 1.75922 18.3424 1.31528 18.9997 1.31528C19.6569 1.31528 20.3326 1.75922 21.0481 2.22917C21.6587 2.63039 22.2901 3.04523 22.9907 3.2284C23.721 3.41938 24.4995 3.36999 25.2522 3.32218C26.0944 3.26883 26.8899 3.21829 27.4241 3.52072C27.9719 3.8308 28.3265 4.53709 28.7018 5.28478C29.0314 5.94132 29.3723 6.62019 29.8978 7.13435C30.4233 7.64842 31.1174 7.98187 31.7884 8.30426C32.5528 8.67146 33.2747 9.01837 33.5917 9.55424C33.9008 10.0769 33.8493 10.8551 33.7946 11.6789C33.7458 12.4153 33.6953 13.1767 33.8905 13.8911C34.0777 14.5765 34.5018 15.1943 34.9119 15.7916C35.3923 16.4914 35.8461 17.1525 35.8461 17.7954C35.8461 18.4385 35.3923 19.0995 34.9118 19.7994Z" fill="black"/>
<path d="M28.2322 17.1796C28.6864 16.7464 28.8468 16.1107 28.6507 15.5205C28.4547 14.9303 27.9429 14.5081 27.3152 14.4189L22.7558 13.7708C22.6548 13.7565 22.5676 13.6945 22.5225 13.605L20.4835 9.56333C20.2027 9.00681 19.6342 8.66113 18.9999 8.66113C18.3656 8.66113 17.7971 9.00681 17.5163 9.56333L15.4773 13.605C15.4322 13.6945 15.345 13.7565 15.244 13.7708L10.6847 14.4189C10.0569 14.5081 9.5451 14.9302 9.34907 15.5205C9.15303 16.1107 9.3134 16.7464 9.76774 17.1796L13.0669 20.3255C13.14 20.3952 13.1733 20.4955 13.156 20.5939L12.3772 25.0361C12.2699 25.6478 12.5222 26.2544 13.0354 26.6191C13.3254 26.8252 13.6646 26.9299 14.0062 26.9299C14.2691 26.9299 14.5334 26.8679 14.7777 26.7423L18.8556 24.6449C18.946 24.5985 19.0538 24.5985 19.144 24.6449L23.222 26.7423C23.7834 27.031 24.4511 26.9838 24.9644 26.6191C25.4776 26.2544 25.7298 25.6478 25.6226 25.0361L24.8437 20.5939C24.8264 20.4955 24.8598 20.3952 24.9327 20.3256L28.2322 17.1796ZM23.5186 20.8162L24.2974 25.2585C24.3268 25.4261 24.221 25.5216 24.1742 25.5549C24.1273 25.5883 24.0018 25.6571 23.8479 25.578L19.7698 23.4806C19.2877 23.2327 18.7121 23.2328 18.23 23.4806L14.152 25.5781C13.9983 25.6572 13.8726 25.5883 13.8257 25.5549C13.7789 25.5216 13.6731 25.4261 13.7024 25.2585L14.4813 20.8163C14.5734 20.2913 14.3956 19.7557 14.0055 19.3837L10.7063 16.2377C10.5818 16.119 10.61 15.9808 10.6279 15.9271C10.6458 15.8732 10.706 15.7452 10.878 15.7208L15.4374 15.0727C15.9764 14.996 16.442 14.6651 16.6831 14.1873L18.7221 10.1457C18.799 9.9932 18.942 9.97677 19 9.97677C19.0579 9.97677 19.2009 9.9932 19.2779 10.1457L21.3169 14.1873C21.5579 14.6651 22.0236 14.9961 22.5626 15.0727L27.122 15.7208C27.294 15.7452 27.3541 15.8732 27.3721 15.9271C27.39 15.9809 27.4182 16.1191 27.2937 16.2377L23.9944 19.3838C23.6043 19.7557 23.4265 20.2913 23.5186 20.8162Z" fill="black"/>
</svg>
