<svg width="350" height="197" viewBox="0 0 350 197" fill="none" xmlns="http://www.w3.org/2000/svg">
<path d="M76.2464 28.998L74.878 29.267C71.7931 30.2374 68.8892 49.2322 67.9499 52.9179C61.5515 79.7925 54.1331 106.504 47.974 133.626C46.0004 115.035 40.8578 96.6344 40.2987 77.9218C40.0744 71.0504 41.1937 65.3708 42.1363 58.6167C42.1908 58.2767 42.2618 56.9628 42.1694 56.669C41.6611 55.0531 40.6872 55.0365 39.2182 55.4986C36.4271 56.3767 37.1631 61.7955 36.8824 63.9826C32.6842 93.2324 23.6299 124.494 12.5471 151.874C9.24577 159.854 4.97882 167.331 1.67744 175.312L0.901594 177.977C1.17887 178.859 1.80442 179.308 2.67757 179.517C10.8662 176.296 34.2952 90.1425 37.4482 76.5583C38.9645 96.2613 44.0445 115.489 44.587 135.176C44.6843 138.051 44.1741 145.153 44.8673 147.357C45.1445 148.238 46.0177 148.448 46.8991 148.171C50.7186 146.969 51.4618 131.883 52.2079 128.096C56.5083 104.303 62.9033 80.4973 69.6301 57.2326C67.1898 83.3463 61.5063 162.787 68.5768 185.263C70.5177 191.433 73.7048 195.919 80.5679 196.182C81.7432 195.812 82.6956 194.221 82.3259 193.046C81.4017 190.108 74.7366 192.527 71.2244 181.363C65.032 161.678 69.0642 107.78 70.6114 85.4988C71.7525 67.0585 72.3653 51.0446 77.2003 33.0568C77.301 32.8637 77.6741 30.9704 77.6279 30.8235C77.3506 29.9421 77.0188 29.4007 76.2464 28.998ZM130.048 119.27C127.643 120.349 118.054 145.806 103.657 150.334C102.629 150.658 101.215 150.78 100.799 149.458C97.9335 140.35 107.923 122.839 111.812 114.674C111.821 114.187 111.728 113.893 111.59 113.452C111.358 112.718 110.632 112.462 109.898 112.693C107.841 113.34 107.565 118.109 105.601 119.049C104.317 120.099 103.805 121.552 103.1 122.903C99.8422 119.731 93.3026 120.497 89.3362 121.744C81.6972 124.147 76.58 138.672 78.8444 145.87C79.5838 148.221 81.2047 150.294 83.9958 149.416C90.3126 147.429 97.8528 136.501 101.113 130.955C99.6239 135.459 97.2467 146.378 98.6793 150.932C99.4649 153.429 101.56 153.416 103.763 152.723C111.99 150.135 131.205 128.592 131.446 120.121L130.048 119.27ZM83.844 146.881C82.375 147.343 81.5646 146.306 81.1487 144.984C79.5775 139.989 83.2636 126.56 88.699 124.851C91.0494 124.111 99.545 122.892 100.562 126.124L100.793 126.858L99.53 129.515L99.4837 129.369C96.9665 134.196 89.1325 145.217 83.844 146.881ZM99.5844 129.175L99.5382 129.029L99.4837 129.369L99.5844 129.175ZM157.786 110.544C156.069 111.245 146.086 136.987 130.661 141.84C130.074 142.024 129.704 140.849 129.611 140.555C127.07 132.476 134.98 108.354 138.428 100.328C139.07 99.8029 139.906 99.3787 140.64 99.1476C144.166 98.0386 147.969 97.8109 151.625 97.6294C152.019 97.3439 153.257 96.1472 153.072 95.5596C152.333 93.2092 140.535 96.7593 138.625 97.36C141.649 88.4981 144.627 79.4894 148.57 70.984C148.725 70.4509 150.228 68.0411 150.089 67.6004C149.858 66.8659 149.232 66.4169 148.405 66.3542C147.818 66.539 134.246 94.2172 125.689 101.914C124.451 103.11 123.662 103.681 124.263 105.591C124.448 106.179 125.275 106.241 125.715 106.103C128.947 105.086 131.717 102.6 134.856 101.29C132.08 109.912 124.069 134.227 126.611 142.307C127.35 144.657 129.05 144.929 131.107 144.282C140.655 141.279 157.797 121.357 159.331 111.349L157.786 110.544ZM131.712 100.019C134.599 96.3663 137.007 92.2184 139.076 88.0161C137.159 94.7537 138.146 96.8648 131.712 100.019ZM192.608 100.881C192.423 100.293 191.797 99.8445 191.21 100.029C188.859 100.769 173.294 128.267 160.219 132.38C158.016 133.073 155.527 133.372 154.695 130.727C153.771 127.789 156.295 116.825 158.044 114.176C159.56 113.86 161.214 113.986 162.683 113.524C167.824 111.906 175.831 105.029 173.89 98.8586C173.29 96.9489 171.002 96.8613 169.386 97.3697C159.837 100.373 149.811 122.9 152.722 132.155C153.924 135.975 158.168 135.608 161.253 134.638C166.835 132.882 194.179 105.876 192.608 100.881ZM169.483 100.245C169.777 100.153 171.045 100.077 171.183 100.517C172.477 104.631 166.266 109.006 162.887 110.069C162.006 110.346 160.931 110.523 159.958 110.506C161.098 106.434 165.517 101.493 169.483 100.245ZM210.74 93.0786C210 90.7281 208.374 86.0735 204.996 87.1364C199.413 88.8924 192.958 104.807 190.432 110.122C192.147 103.771 194.983 97.3895 196.451 91.2774L196.513 90.4505C196.236 89.5691 195.61 89.1201 194.783 89.0573C193.021 89.6119 184.802 120.449 184.929 124.445L186.612 125.692C189.063 124.759 197.802 91.9823 205.001 89.7179C207.645 88.886 208.141 94.0573 208.65 95.6732L209.893 97.0581C211.571 95.7228 211.294 94.8414 210.74 93.0786ZM243.565 83.5598C243.418 83.606 230.194 110.852 218.148 114.641C216.385 115.196 215.227 114.592 214.672 112.829C212.038 104.455 221.524 87.9101 225.351 80.5717L225.073 79.6903C224.888 79.1027 223.768 79.1324 223.474 79.2248C217.157 81.2119 210.519 107.839 212.553 114.303C213.385 116.947 215.123 117.853 217.767 117.021C229.519 113.324 240.344 95.3894 245.11 84.3653C245.025 83.5846 244.152 83.3749 243.565 83.5598ZM228.682 73.712C230.151 73.2499 230.91 71.5581 230.494 70.2359C230.217 69.3545 229.444 68.9518 228.563 69.229C227.241 69.6449 226.095 71.1354 226.557 72.6044C226.881 73.6327 227.653 74.0355 228.682 73.712ZM293.305 67.9126C290.9 68.992 281.311 94.4487 266.915 98.9775C265.886 99.3009 264.472 99.423 264.056 98.1009C261.191 88.9929 271.181 71.4822 275.07 63.3169C275.078 62.83 274.985 62.5362 274.847 62.0955C274.616 61.361 273.889 61.1051 273.155 61.3362C271.098 61.9831 270.823 66.7517 268.858 67.6924C267.574 68.7422 267.062 70.1947 266.358 71.5465C263.099 68.374 256.56 69.1396 252.593 70.3874C244.954 72.7904 239.837 87.3154 242.102 94.5136C242.841 96.864 244.462 98.9372 247.253 98.0592C253.57 96.0721 261.11 85.1438 264.37 79.5979C262.881 84.1023 260.504 95.0208 261.937 99.5748C262.722 102.072 264.817 102.059 267.02 101.366C275.247 98.778 294.462 77.2351 294.703 68.7644L293.305 67.9126ZM247.101 95.5239C245.632 95.986 244.822 94.9494 244.406 93.6273C242.835 88.6326 246.521 75.2036 251.956 73.4938C254.307 72.7544 262.802 71.5348 263.819 74.7667L264.05 75.5012L262.787 78.1586L262.741 78.0117C260.224 82.8396 252.39 93.8603 247.101 95.5239ZM262.842 77.8186L262.795 77.6717L262.741 78.0117L262.842 77.8186ZM324.13 0.74321L322.043 0.269436C311.072 3.88225 286.666 78.7188 290.317 90.3242C291.149 92.9684 293.042 93.3415 295.392 92.6021C306.704 89.0438 319.09 70.9406 323.075 60.0006L321.631 59.002C318.777 60.707 309.637 85.538 294.653 90.2517C294.359 90.3441 292.898 90.3193 292.714 89.7317L292.398 88.2164C291.687 81.3368 298.668 51.6959 302.57 45.6252L303.12 44.8065C310.72 36.1197 328.012 13.083 324.13 0.74321ZM304.432 39.2276C306.953 31.3313 314.779 6.4292 322.048 2.85094L322.187 3.29165C324.544 10.7837 309.741 33.5217 304.432 39.2276ZM322.133 3.63167L322.078 3.97169C322.179 3.77857 322.179 3.77857 322.133 3.63167ZM348.277 50.6199C343.8 58.97 334.324 66.3099 326.875 71.8821C326.026 70.2117 325.325 68.495 324.77 66.7322C323.06 61.2968 322.184 49.7873 329.089 47.6153L330.44 48.3201C330.483 51.5355 327.047 56.0068 327.925 58.7979C328.109 59.3856 329.184 59.209 329.478 59.1166C332.269 58.2385 333.887 49.0118 333.101 46.5145C332.5 44.6047 330.809 43.8454 328.899 44.4462C317 48.1894 321.424 65.8474 324.701 73.696C319.967 77.1225 312.334 87.7569 314.229 93.7799C315.107 96.5711 317.756 98.3208 320.547 97.4428C328.921 94.8087 329.051 81.368 327.66 74.3794C331.424 67.868 347.415 61.2232 349.675 51.4716L348.277 50.6199ZM320.341 95.2475C318.578 95.802 316.748 94.602 316.193 92.8392C314.252 86.6693 321.479 79.8757 325.486 76.1933C326.957 81.3811 326.511 93.3066 320.341 95.2475Z" fill="#EDEDED"/>
</svg>
