<svg width="287" height="155" viewBox="0 0 287 155" fill="none" xmlns="http://www.w3.org/2000/svg">
<path d="M86.5671 1.65976C73.7866 5.68021 64.7229 17.4106 57.1448 27.7051C58.2524 25.5808 66.5767 11.5 66.2532 10.4716C65.9297 9.44332 64.9641 8.93987 64.091 8.73022C54.4168 13.3879 33.5036 89.0631 30.2037 102.693L29.5698 102.731C16.2017 106.937 -3.2823 127.111 1.47755 142.242C6.09877 156.932 26.3894 155.231 37.9947 151.581C85.2974 136.7 119.955 80.5947 118.292 32.2013C118.111 28.5453 117.488 25.0279 116.379 21.5022C112.313 8.57475 101.257 -2.96146 86.5671 1.65976ZM40.0465 148.352C29.1757 151.772 8.66713 154.833 4.13834 140.437C-0.436669 125.893 17.3949 111.243 29.5037 106.627C28.6651 110.119 24.3384 129.723 25.0316 131.927L26.7696 132.833C30.2029 131.43 30.8521 110.4 32.5887 105.656C42.4312 102.56 61.8204 105.178 65.425 116.637C67.1811 122.219 62.8878 125.507 63.7658 128.298C64.1355 129.473 64.6604 130.115 65.9825 129.7C70.0958 128.406 70.6094 118.235 69.5003 114.709C65.295 101.341 44.8395 98.4123 33.2342 102.063C34.2527 96.5765 44.0103 58.3131 47.536 57.204C49.4457 56.6032 49.776 51.4947 49.9015 49.8408C50.3854 38.5492 74.1694 8.95003 84.8933 5.57654C98.5553 1.27881 107.813 9.6673 111.741 22.154C125.42 65.6373 81.9138 135.182 40.0465 148.352ZM149.426 75.3595C149.242 74.7719 148.616 74.3229 148.028 74.5077C145.678 75.2471 130.112 102.745 117.038 106.858C114.834 107.551 112.345 107.85 111.514 105.206C110.589 102.268 113.113 91.3031 114.863 88.654C116.378 88.3387 118.032 88.4642 119.501 88.0021C124.643 86.3847 132.65 79.5069 130.709 73.337C130.108 71.4273 127.821 71.3397 126.205 71.8481C116.656 74.8519 106.63 97.3787 109.541 106.634C110.743 110.453 114.986 110.087 118.071 109.116C123.653 107.36 150.998 80.3542 149.426 75.3595ZM126.302 74.7234C126.596 74.631 127.863 74.5551 128.002 74.9958C129.296 79.109 123.085 83.4846 119.706 84.5474C118.824 84.8247 117.75 85.0013 116.776 84.9848C117.917 80.9128 122.336 75.9711 126.302 74.7234ZM174.547 66.1657C170.07 74.5159 160.594 81.8558 153.145 87.4279C152.296 85.7575 151.595 84.0409 151.04 82.278C149.331 76.8426 148.454 65.3331 155.359 63.1611L156.711 63.866C156.753 67.0813 153.317 71.5526 154.195 74.3438C154.38 74.9314 155.454 74.7548 155.748 74.6624C158.539 73.7844 160.157 64.5577 159.371 62.0603C158.771 60.1506 157.079 59.3913 155.169 59.992C143.27 63.7352 147.695 81.3932 150.971 89.2418C146.237 92.6683 138.604 103.303 140.499 109.326C141.377 112.117 144.026 113.867 146.817 112.989C155.191 110.355 155.322 96.9138 153.93 89.9253C157.694 83.4138 173.685 76.769 175.945 67.0175L174.547 66.1657ZM146.611 110.793C144.848 111.348 143.018 110.148 142.463 108.385C140.522 102.215 147.749 95.4215 151.756 91.7392C153.227 96.927 152.781 108.852 146.611 110.793ZM202.535 57.3612C202.388 57.4074 189.165 84.6532 177.119 88.4426C175.356 88.9971 174.197 88.393 173.643 86.6302C171.009 78.2567 180.495 61.7115 184.321 54.3732L184.044 53.4918C183.859 52.9042 182.738 52.9338 182.444 53.0263C176.128 55.0134 169.49 81.6403 171.523 88.1041C172.355 90.7483 174.093 91.6545 176.737 90.8227C188.49 87.1257 199.315 69.1908 204.08 58.1668C203.996 57.386 203.123 57.1764 202.535 57.3612ZM187.652 47.5135C189.121 47.0513 189.88 45.3595 189.465 44.0374C189.187 43.156 188.415 42.7532 187.533 43.0305C186.211 43.4464 185.066 44.9368 185.528 46.4059C185.851 47.4342 186.624 47.837 187.652 47.5135ZM217.038 77.4993C221.782 64.8676 225.452 52.4124 232.614 40.7958C233.017 40.0234 233.466 39.3978 233.528 38.5709L231.597 37.5639C230.221 38.3199 229.461 40.0117 228.903 41.3173L228.123 41.4015C227.225 42.6526 226.327 43.9037 225.622 45.2555C222.318 41.9361 215.677 42.8949 211.711 44.1426C204.219 46.4994 199.148 61.1713 201.412 68.3695C202.152 70.72 203.827 72.4531 206.471 71.6213C213.229 69.4955 219.569 60.3977 222.883 54.5119C219.674 62.7861 217.33 71.757 213.542 79.7291C206.651 83.9957 197.018 86.2188 191.038 91.3288C190.643 91.6143 189.753 92.3785 189.938 92.9661C190.4 94.4352 191.018 95.3711 192.772 95.3034L193.167 95.0179C200.365 92.7535 201.405 103.243 204.93 102.134L206.416 100.698L207.096 100.807C210.97 99.2653 212.943 83.4693 217.484 79.9422C230.015 70.5111 238.488 62.034 243.907 46.9297L243.877 45.8089L242.874 44.6717C241.992 44.9489 235.461 59.596 234.013 61.6658C229.863 67.9758 223.342 73.4176 217.038 77.4993ZM206.366 69.2329C204.897 69.695 203.985 68.8516 203.616 67.6763C201.998 62.5347 205.638 48.9588 211.221 47.2028C213.571 46.4634 222.067 45.2438 223.083 48.4757C224.238 52.1483 210.038 68.0776 206.366 69.2329ZM206.256 98.6495C203.329 96.0184 200.365 92.7535 196.285 92.0998C201.984 89.1767 207.537 86.2999 212.951 82.9824C210.572 88.251 208.488 93.4272 206.256 98.6495ZM267.97 50.3378C263.71 51.678 262.88 40.3153 261.91 37.2304C261.17 34.8799 259.683 30.666 256.305 31.7289C250.869 33.4387 244.275 48.9127 241.997 53.9882C243.758 47.7837 246.053 41.7344 248.007 35.6306L247.684 34.6023C247.452 33.8678 246.873 33.5657 246.139 33.7968C243.641 34.5824 239.722 55.9952 238.783 59.6809C238.464 61.2341 236.015 67.8166 236.384 68.9918C236.662 69.8732 237.287 70.3222 238.114 70.3849C239.537 69.7759 249.116 39.1563 256.41 34.1172C258.412 33.8103 259.521 37.336 259.984 38.805C261.139 42.4776 261.367 46.2805 262.522 49.9531C263.539 53.1849 265.184 53.7973 268.416 52.7807C272.235 51.5792 287.339 36.9802 286.368 33.8952C286.183 33.3076 285.852 32.7662 285.172 32.6573C278.713 37.2721 276.638 47.6113 267.97 50.3378Z" fill="#EDEDED"/>
</svg>
