<svg width="45" height="41" viewBox="0 0 45 41" fill="none" xmlns="http://www.w3.org/2000/svg">
<path d="M45 7.4479C45 3.13817 33.4074 0.8125 22.5 0.8125C17.7827 0.8125 13.2801 1.21522 9.47845 1.97705C9.1214 2.04846 8.89034 2.3959 8.96175 2.75296C9.03316 3.11002 9.38061 3.34176 9.73766 3.26966C17.9822 1.61725 29.9635 1.72196 37.7696 3.85777C40.6278 4.63986 43.6816 5.99358 43.6816 7.4479C43.6816 11.7793 21.1621 14.8499 7.23038 11.038C4.37222 10.2559 1.31836 8.90221 1.31836 7.4479C1.31836 6.02139 4.28089 4.68346 7.05322 3.90687C7.40376 3.80868 7.60838 3.44476 7.51019 3.09422C7.41199 2.74369 7.04842 2.53907 6.69754 2.63726C2.31606 3.86464 0 5.52804 0 7.4479V10.085C0 14.1235 10.2173 16.4423 20.5225 16.6967V28.8606C20.5225 29.2245 20.8174 29.5198 21.1816 29.5198C21.5459 29.5198 21.8408 29.2245 21.8408 28.8606V16.718C22.2631 16.7214 22.7008 16.7217 23.1592 16.718V33.5518C23.1592 33.9153 22.8636 34.2109 22.5 34.2109C22.1364 34.2109 21.8408 33.9153 21.8408 33.5518V31.7061C21.8408 31.3421 21.5459 31.0469 21.1816 31.0469C20.8174 31.0469 20.5225 31.3421 20.5225 31.7061V32.6626C17.6612 33.2695 15.2614 35.1273 15.2614 36.8188C15.2614 37.8072 16.0946 38.6831 17.6077 39.2849C18.9284 39.8105 20.6704 40.0996 22.5124 40.0996C24.3543 40.0996 26.096 39.8105 27.4171 39.2849C28.9301 38.6831 29.7633 37.8072 29.7633 36.8188C29.7633 35.9622 29.1131 34.9975 27.9798 34.1721C26.9955 33.4553 25.7688 32.9269 24.4775 32.6574V16.697C28.6506 16.5954 32.6016 16.1731 35.9418 15.47C36.2978 15.3948 36.5258 15.0453 36.4509 14.6889C36.3757 14.3326 36.0255 14.1049 35.6702 14.1798C27.2382 15.9551 14.687 15.837 6.81049 13.5573C0.54039 11.7422 1.39217 9.91296 1.31836 9.81442C4.65649 12.6025 13.7964 14.0833 22.5 14.0833C31.2036 14.0833 40.3435 12.6025 43.6816 9.81442V10.085C43.6816 10.5193 43.2961 12.0498 38.334 13.5148C37.9849 13.6178 37.7854 13.9844 37.8888 14.3336C37.9921 14.6845 38.3598 14.8819 38.7076 14.7789C42.824 13.5639 45 11.9406 45 10.085V7.4479ZM28.445 36.8188C28.445 37.6188 26.1337 38.7812 22.5124 38.7812C18.8906 38.7812 16.5797 37.6188 16.5797 36.8188C16.5797 36.1129 18.1134 34.5862 20.574 34.0012C20.7779 34.876 21.5641 35.5293 22.5 35.5293C23.438 35.5293 24.2252 34.8732 24.4274 33.9957C26.9021 34.5766 28.445 36.1085 28.445 36.8188Z" fill="black"/>
</svg>
