<svg width="367" height="147" viewBox="0 0 367 147" fill="none" xmlns="http://www.w3.org/2000/svg">
<path d="M85.1342 17.6811C82.8698 10.4829 74.4321 8.29396 67.8214 10.3735C53.425 14.9023 34.5267 43.6103 26.5128 56.6249C30.7369 45.9326 37.7191 36.3099 41.6956 25.8569L42.0142 24.3037C41.6445 23.1285 41.1197 22.4864 39.6506 22.9485C29.8082 26.0447 -2.19462 135.236 1.13265 145.813C1.36372 146.548 2.08996 146.804 2.67757 146.619C3.41209 146.388 4.24241 143.382 4.35137 142.702C7.99127 129.126 9.01172 114.921 12.3116 101.291C13.2047 97.4582 16.2224 80.3649 19.3074 79.3944L19.8488 79.0627C19.2198 81.6821 19.804 84.5657 20.5896 87.0631C23.1313 95.1427 30.1841 98.5745 38.1169 96.079C58.9771 89.5169 91.2342 37.0723 85.1342 17.6811ZM83.2259 23.9318C83.336 43.27 57.3183 86.8099 38.3679 92.7713C32.198 94.7122 25.7624 92.2163 23.7291 85.7526C19.9859 73.8535 31.74 61.4381 34.6503 50.6748L34.2723 49.9865C42.3621 38.2395 54.3575 17.3534 68.4601 12.9171C74.777 10.9299 80.5787 13.4637 82.612 19.9275C83.0279 21.2496 83.1962 22.811 83.3183 24.2256L83.2259 23.9318ZM72.3008 103.73C71.5614 101.379 69.9358 96.7246 66.557 97.7875C60.9747 99.5435 54.5188 115.458 51.9933 120.773C53.7084 114.422 56.5443 108.041 58.0118 101.929L58.0746 101.102C57.7973 100.22 57.1717 99.7712 56.3448 99.7085C54.582 100.263 46.3629 131.101 46.4899 135.097L48.1734 136.343C50.6246 135.41 59.3636 102.633 66.5619 100.369C69.2061 99.5372 69.7028 104.708 70.2111 106.324L71.454 107.709C73.1327 106.374 72.8554 105.493 72.3008 103.73ZM110.339 91.2796C107.401 92.2039 108.524 103.474 97.3596 106.986C99.0038 101.949 100.257 94.1282 98.6393 88.9866C97.0681 83.9919 93.1217 81.1974 87.9801 82.8148C80.7818 85.0792 76.637 93.9708 79.9297 100.846C75.8164 102.139 74.2117 113.461 75.4133 117.28C76.5686 120.953 79.8977 122.811 83.5703 121.656C86.9491 120.593 95.8294 113.925 95.7486 110.076L96.0969 109.644C96.8776 109.559 97.6583 109.475 98.3928 109.244C104.563 107.303 111.474 98.9945 111.342 92.4169L110.339 91.2796ZM88.5263 85.0646C92.6396 83.7706 95.3729 86.3011 96.5282 89.9736C97.4062 92.7648 97.2755 106.205 94.6312 107.037C90.2241 108.424 82.356 101.374 81.1083 97.4074C79.5371 92.4127 83.8254 86.5434 88.5263 85.0646ZM83.8675 118.495C81.2232 119.327 78.9521 118.266 78.1202 115.621C76.5028 110.48 80.9595 106.172 80.778 102.516C83.7803 106.415 88.5075 109.125 93.5154 109.648C92.2147 111.672 90.8677 113.549 89.0884 115.077L89.7304 114.552C88.1442 116.181 86.071 117.802 83.8675 118.495ZM162.049 17.7015C145.683 34.9578 142.201 59.3005 133.22 80.53C130.403 77.2188 123.422 78.1232 119.75 79.2785C112.111 81.6815 107.086 96.5003 109.35 103.698C110.09 106.049 111.719 107.635 114.363 106.803C122.296 104.308 129.621 91.6713 133.733 84.7274C132.236 89.7187 128.55 103.148 130.075 107.996C130.768 110.199 132.607 110.912 134.81 110.219C146.122 106.661 158.84 89.0988 162.871 78.3058L162.787 77.5251L161.343 76.5264C159.425 77.6141 149.936 102.878 134.659 107.684C133.777 107.961 132.703 108.138 132.333 106.962C132.148 106.375 132.211 105.548 132.173 104.914C131.663 97.6481 138.707 67.1802 143.52 61.953C150.662 54.3787 167.601 29.193 164.274 18.616C163.997 17.7345 162.784 17.4704 162.049 17.7015ZM114.257 104.415C112.788 104.877 111.785 103.74 111.369 102.418C109.798 97.423 113.677 84.0947 119.112 82.3848C122.491 81.322 129.031 80.5563 131.16 84.2454L129.943 87.0497L129.897 86.9028C127.279 91.9238 119.84 102.659 114.257 104.415ZM145.613 56.2899C144.932 50.531 156.556 22.8198 161.551 21.2486C161.697 21.2023 161.79 21.4961 161.836 21.643C164.193 29.1351 150.535 50.3826 145.613 56.2899ZM129.998 86.7097L129.952 86.5628L129.897 86.9028L129.998 86.7097ZM209.97 61.3908L209.189 61.475C207.867 61.8909 196.902 88.1034 182.946 92.4936C181.918 92.8171 180.402 93.1323 179.987 91.8102C177.306 83.2898 185.881 65.9012 189.855 58.5166C190.396 58.1849 191.294 56.9338 191.063 56.1992C190.786 55.3178 190.361 54.4826 189.186 54.8523C184.045 56.4697 176.354 84.881 163.867 88.809C162.692 89.1787 161.68 88.5283 161.357 87.5C159.277 80.8894 167.245 67.7279 171.231 62.4379L170.954 61.5565C170.769 60.9689 169.942 60.9061 169.501 61.0447C163.919 62.8008 157.536 83.0516 159.292 88.6339C159.985 90.8374 161.622 91.9368 163.973 91.1974C169.996 89.3027 176.243 79.9111 179.789 74.7597C178.447 79.2179 176.59 88.197 178.022 92.751C178.854 95.3952 181.142 95.4828 183.492 94.7434C191.572 92.2017 210.153 70.6968 210.587 62.3267L209.97 61.3908ZM235.801 53.1037C234.478 53.5196 223.018 80.2108 210.237 84.2313C208.621 84.7396 207.316 84.1817 206.807 82.5658C204.219 74.3392 212.311 53.8739 221.125 51.1012C222.154 50.7777 222.687 50.9329 223.01 51.9612C223.195 52.5488 222.381 54.5806 222.272 55.2607L222.18 54.9669C220.67 57.8636 214.42 61.6053 215.345 64.5433C215.53 65.1309 216.356 65.1937 216.797 65.0551C221.057 63.7149 227.011 54.4157 225.671 50.1555C224.978 47.952 223.085 47.5789 221.028 48.2259C211.039 51.3683 201.785 74.2979 204.789 83.8466C205.574 86.3439 207.652 87.3046 210.15 86.519C216.907 84.3932 239.055 59.3447 237.346 53.9093C237.161 53.3216 236.535 52.8727 235.801 53.1037ZM263.516 44.3852C261.799 45.0866 251.816 70.8288 236.391 75.681C235.803 75.8659 235.434 74.6907 235.341 74.3969C232.8 66.3172 240.71 42.1959 244.158 34.1692C244.8 33.6443 245.635 33.2201 246.37 32.9891C249.896 31.88 253.699 31.6523 257.355 31.4709C257.749 31.1853 258.987 29.9887 258.802 29.4011C258.063 27.0506 246.264 30.6007 244.355 31.2014C247.379 22.3396 250.357 13.3308 254.3 4.82547C254.455 4.29234 255.957 1.88253 255.819 1.44182C255.588 0.707309 254.962 0.258337 254.135 0.195591C253.548 0.38044 239.976 28.0586 231.419 35.755C230.181 36.9517 229.392 37.5228 229.993 39.4325C230.178 40.0201 231.005 40.0829 231.445 39.9442C234.677 38.9275 237.447 36.4418 240.586 35.1314C237.81 43.7539 229.799 68.0684 232.341 76.148C233.08 78.4985 234.78 78.7709 236.837 78.1239C246.385 75.1201 263.527 55.1981 265.061 45.1907L263.516 44.3852ZM237.442 33.8603C240.329 30.2077 242.737 26.0599 244.806 21.8575C242.889 28.5951 243.876 30.7063 237.442 33.8603ZM290.476 35.9041C290.329 35.9503 277.106 63.1961 265.06 66.9855C263.297 67.54 262.138 66.9359 261.583 65.1731C258.949 56.7996 268.436 40.2545 272.262 32.9161L271.985 32.0347C271.8 31.4471 270.679 31.4767 270.385 31.5692C264.068 33.5563 257.431 60.1832 259.464 66.647C260.296 69.2912 262.034 70.1974 264.678 69.3656C276.43 65.6686 287.255 47.7337 292.021 36.7097C291.937 35.9289 291.064 35.7193 290.476 35.9041ZM275.593 26.0564C277.062 25.5943 277.821 23.9024 277.405 22.5803C277.128 21.6989 276.356 21.2961 275.474 21.5734C274.152 21.9893 273.007 23.4797 273.469 24.9488C273.792 25.9771 274.565 26.3799 275.593 26.0564ZM322.659 24.4886C319.721 25.4128 320.845 36.683 309.68 40.1951C311.324 35.1576 312.577 27.3372 310.96 22.1956C309.389 17.2009 305.442 14.4064 300.301 16.0238C293.102 18.2882 288.957 27.1798 292.25 34.0545C288.137 35.3484 286.532 46.6697 287.734 50.4892C288.889 54.1618 292.218 56.0204 295.891 54.8651C299.27 53.8022 308.15 47.1341 308.069 43.285L308.417 42.8525C309.198 42.7684 309.979 42.6842 310.713 42.4532C316.883 40.5122 323.794 32.2034 323.663 25.6259L322.659 24.4886ZM300.847 18.2736C304.96 16.9796 307.693 19.51 308.849 23.1826C309.727 25.9738 309.596 39.4144 306.952 40.2462C302.545 41.6326 294.676 34.5828 293.429 30.6164C291.858 25.6217 296.146 19.7523 300.847 18.2736ZM296.188 51.7043C293.544 52.5361 291.273 51.4747 290.441 48.8304C288.823 43.6888 293.28 39.381 293.099 35.7249C296.101 39.6237 300.828 42.334 305.836 42.8574C304.535 44.881 303.188 46.7577 301.409 48.2861L302.051 47.7612C300.465 49.3903 298.391 51.0111 296.188 51.7043ZM348.164 31.3177C343.904 32.6578 343.074 21.2952 342.104 18.2103C341.364 15.8598 339.877 11.6459 336.499 12.7087C331.063 14.4186 324.469 29.8926 322.191 34.968C323.952 28.7636 326.247 22.7143 328.201 16.6105L327.878 15.5822C327.647 14.8476 327.067 14.5456 326.333 14.7766C323.835 15.5622 319.916 36.9751 318.977 40.6608C318.658 42.214 316.209 48.7964 316.578 49.9717C316.856 50.8531 317.481 51.3021 318.308 51.3648C319.731 50.7558 329.31 20.1361 336.604 15.0971C338.606 14.7902 339.715 18.3158 340.178 19.7849C341.333 23.4574 341.561 27.2604 342.716 30.9329C343.733 34.1648 345.378 34.7772 348.61 33.7606C352.429 32.559 367.533 17.9601 366.562 14.8751C366.377 14.2875 366.046 13.7461 365.366 13.6372C358.907 18.252 356.832 28.5912 348.164 31.3177Z" fill="#EDEDED"/>
</svg>
