<svg width="203" height="142" viewBox="0 0 203 142" fill="none" xmlns="http://www.w3.org/2000/svg">
<path d="M93.1817 5.79997C68.7958 13.4712 44.3093 21.3355 20.7635 31.1641C18.3124 32.0966 -0.570485 39.8125 0.353757 42.7506C0.677244 43.7789 1.24832 44.5679 2.42355 44.1982C10.3563 41.7027 17.411 36.4161 25.0665 33.0393C35.5676 28.4443 46.5391 24.8315 57.1409 20.0435C38.7311 54.4097 25.4872 100.066 20.2043 138.698C20.0953 139.378 20.0788 140.352 20.3099 141.086C20.5409 141.821 21.5148 141.837 22.1024 141.652C23.8652 141.098 24.0369 139.591 24.2086 138.084C29.3694 98.0375 39.4456 58.2209 60.0128 23.0146C60.7177 21.6628 61.9094 20.3193 61.4011 18.7033C66.7441 16.6997 72.0326 15.036 77.468 13.3262C89.6609 9.49056 102.786 8.10609 114.832 4.31669C116.155 3.90078 117.392 2.70415 117.417 1.24339C116.17 -2.72299 96.8543 4.64466 93.1817 5.79997ZM94.8949 99.8649C94.71 99.2773 94.0845 98.8283 93.4969 99.0132C91.1464 99.7526 75.5807 127.251 62.5064 131.364C60.3028 132.057 57.8137 132.356 56.9819 129.711C56.0577 126.773 58.5817 115.809 60.3314 113.159C61.8466 112.844 63.5005 112.97 64.9695 112.508C70.1111 110.89 78.1183 104.012 76.1774 97.8424C75.5766 95.9327 73.2889 95.8452 71.673 96.3535C62.1243 99.3573 52.0981 121.884 55.0094 131.139C56.211 134.958 60.4546 134.592 63.5396 133.622C69.1219 131.866 96.4661 104.86 94.8949 99.8649ZM71.7703 99.2288C72.0641 99.1364 73.3318 99.0605 73.4704 99.5012C74.7643 103.614 68.5531 107.99 65.1743 109.053C64.2929 109.33 63.2184 109.507 62.2445 109.49C63.3852 105.418 67.8039 100.477 71.7703 99.2288ZM143.373 83.3234C140.968 84.4028 131.379 109.859 116.982 114.388C115.954 114.712 114.539 114.834 114.124 113.512C111.258 104.404 121.248 86.893 125.137 78.7277C125.145 78.2408 125.053 77.947 124.914 77.5063C124.683 76.7718 123.957 76.5159 123.223 76.747C121.166 77.3939 120.89 82.1625 118.926 83.1032C117.642 84.153 117.13 85.6055 116.425 86.9573C113.167 83.7848 106.627 84.5505 102.661 85.7982C95.0221 88.2012 89.9049 102.726 92.1693 109.924C92.9087 112.275 94.5295 114.348 97.3207 113.47C103.638 111.483 111.178 100.555 114.438 95.0087C112.949 99.5131 110.572 110.432 112.004 114.986C112.79 117.483 114.884 117.47 117.088 116.777C125.314 114.189 144.529 92.6459 144.771 84.1752L143.373 83.3234ZM97.1689 110.935C95.6999 111.397 94.8895 110.36 94.4736 109.038C92.9023 104.043 96.5885 90.6144 102.024 88.9046C104.374 88.1652 112.87 86.9456 113.887 90.1775L114.118 90.912L112.855 93.5694L112.809 93.4225C110.291 98.2504 102.457 109.271 97.1689 110.935ZM112.909 93.2294L112.863 93.0825L112.809 93.4225L112.909 93.2294ZM183.513 84.2572C176.168 86.5678 177.357 73.9244 170.893 75.9577C166.192 77.4365 163.318 83.1837 160.624 86.9371C160.497 82.941 162.066 76.6359 160.957 73.1102C160.356 71.2004 158.819 69.908 156.763 70.555C151.474 72.2186 144.88 87.6926 142.749 92.7219C144.099 87.7768 148.94 78.0203 148.775 73.3904L146.991 72.3373C145.274 73.0388 137.597 103.545 137.035 107.919C137.367 108.46 138.085 109.203 138.82 108.972C141.611 108.094 149.863 75.3085 157.061 73.0441C158.09 72.7206 158.707 73.6565 158.984 74.5379C160.001 77.7697 157.98 87.7689 158.053 92.105L159.497 93.1036C163.904 91.7172 165.903 80.1104 171.485 78.3544C174.424 77.4301 175.493 89.0403 183.572 86.4987C187.686 85.2047 202.092 71.4706 202.112 67.4284L200.567 66.6228C194.062 71.0908 192.474 81.4382 183.513 84.2572Z" fill="#EDEDED"/>
</svg>
